<?xml version="1.0" encoding="UTF-8" standalone="no"?>
<!DOCTYPE svg PUBLIC "-//W3C//DTD SVG 1.1//EN" "http://www.w3.org/Graphics/SVG/1.1/DTD/svg11.dtd">
<svg width="100%" height="100%" viewBox="0 0 2048 2048" version="1.1" xmlns="http://www.w3.org/2000/svg" xmlns:xlink="http://www.w3.org/1999/xlink" xml:space="preserve" xmlns:serif="http://www.serif.com/" style="fill-rule:evenodd;clip-rule:evenodd;stroke-linejoin:round;stroke-miterlimit:2;">
    <g transform="matrix(1,0,0,1,320.5,-26)">
        <path d="M35,1583C35,1567.67 40.333,1554.5 51,1543.5C61.667,1532.5 74.667,1527 90,1527L1317,1527C1332.33,1527 1345.33,1532.5 1356,1543.5C1366.67,1554.5 1372,1567.67 1372,1583C1372,1598.33 1366.67,1611.33 1356,1622C1345.33,1632.67 1332.33,1638 1317,1638L90,1638C74.667,1638 61.667,1632.67 51,1622C40.333,1611.33 35,1598.33 35,1583ZM35,1228C35,1212.67 40.333,1199.33 51,1188C61.667,1176.67 74.667,1171 90,1171L1317,1171C1332.33,1171 1345.33,1176.67 1356,1188C1366.67,1199.33 1372,1212.67 1372,1228C1372,1242.67 1366.67,1255.67 1356,1267C1345.33,1278.33 1332.33,1284 1317,1284L90,1284C74.667,1284 61.667,1278.33 51,1267C40.333,1255.67 35,1242.67 35,1228ZM35,872C35,856.667 40.333,843.667 51,833C61.667,822.333 74.667,817 90,817L1317,817C1332.33,817 1345.33,822.333 1356,833C1366.67,843.667 1372,856.667 1372,872C1372,887.333 1366.67,900.333 1356,911C1345.33,921.667 1332.33,927 1317,927L90,927C74.667,927 61.667,921.667 51,911C40.333,900.333 35,887.333 35,872ZM35,518C35,502.667 40.333,489.5 51,478.5C61.667,467.5 74.667,462 90,462L1317,462C1332.33,462 1345.33,467.5 1356,478.5C1366.67,489.5 1372,502.667 1372,518C1372,533.333 1366.67,546.333 1356,557C1345.33,567.667 1332.33,573 1317,573L90,573C74.667,573 61.667,567.667 51,557C40.333,546.333 35,533.333 35,518Z" style="fill-rule:nonzero;"/>
    </g>
</svg>
