<?xml version="1.0" encoding="UTF-8" standalone="no"?>
<!DOCTYPE svg PUBLIC "-//W3C//DTD SVG 1.1//EN" "http://www.w3.org/Graphics/SVG/1.1/DTD/svg11.dtd">
<svg width="100%" height="100%" viewBox="0 0 2048 2048" version="1.1" xmlns="http://www.w3.org/2000/svg" xmlns:xlink="http://www.w3.org/1999/xlink" xml:space="preserve" xmlns:serif="http://www.serif.com/" style="fill-rule:evenodd;clip-rule:evenodd;stroke-linejoin:round;stroke-miterlimit:2;">
    <g transform="matrix(1,0,0,1,119.756,192.5)">
        <path d="M114,810C100,756.667 92.833,703.333 92.5,650C92.167,596.667 99.333,543 114,489C142,381.667 196,288 276,208C336.667,148.667 405,103.5 481,72.5C557,41.5 635.667,26 717,26C798.333,26 877.167,41.5 953.5,72.5C1029.83,103.5 1098.33,148.667 1159,208C1226.33,276 1275.33,354 1306,442C1329.33,510 1341,578.667 1341,648C1341,669.333 1340,690.667 1338,712C1328.67,803.333 1300.33,888.667 1253,968C1250.33,981.333 1247,991 1243,997L1688,1441C1705.33,1459 1714.67,1476.67 1716,1494L1716,1502C1716,1516.67 1713.33,1528.67 1708,1538C1701.33,1550 1691,1563 1677,1577L1657,1597C1643,1611 1630,1621.33 1618,1628C1608.67,1633.33 1598,1636.33 1586,1637C1583.33,1637 1580,1636.67 1576,1636C1558.67,1634 1541.33,1624.33 1524,1607L1077,1161C1075,1162.33 1072.33,1164 1069,1166C1065.67,1168 1063,1169.67 1061,1171C957,1239 842.333,1273 717,1273C635.667,1273 557,1257.5 481,1226.5C405,1195.5 336.667,1150.33 276,1091C196,1010.33 142,916.667 114,810ZM205,651C205,719.667 217.833,785.167 243.5,847.5C269.167,909.833 306,965 354,1013C403.333,1061 459.333,1098 522,1124C584.667,1150 649.667,1163 717,1163C785.667,1163 851.167,1150 913.5,1124C975.833,1098 1031,1061 1079,1013C1145,947 1189.67,870 1213,782C1225,738 1230.83,694 1230.5,650C1230.17,606 1224.33,562 1213,518C1189.67,430 1145,353.333 1079,288C980.333,187.333 859.667,137 717,137C649,137 583.667,150 521,176C458.333,202 402.667,239.333 354,288C306,336 269.167,391.333 243.5,454C217.833,516.667 205,582.333 205,651Z" style="fill-rule:nonzero;"/>
    </g>
</svg>
