<?xml version="1.0" encoding="UTF-8" standalone="no"?>
<!DOCTYPE svg PUBLIC "-//W3C//DTD SVG 1.1//EN" "http://www.w3.org/Graphics/SVG/1.1/DTD/svg11.dtd">
<svg width="100%" height="100%" viewBox="0 0 2048 2048" version="1.1" xmlns="http://www.w3.org/2000/svg" xmlns:xlink="http://www.w3.org/1999/xlink" xml:space="preserve" xmlns:serif="http://www.serif.com/" style="fill-rule:evenodd;clip-rule:evenodd;stroke-linejoin:round;stroke-miterlimit:2;">
    <g transform="matrix(1,0,0,1,193.5,113)">
        <path d="M102,1282C102,1252 113,1226 135,1204L428,911L135,618C113.667,596.667 103,570.333 103,539C103,507.667 113.667,481.333 135,460L379,217C401,195 427,184 457,184C488.333,184 515,195 537,217L831,512L1124,217C1146,195 1172.67,184 1204,184C1234,184 1260,195 1282,217L1526,460C1547.33,481.333 1558,507.667 1558,539C1558,570.333 1547.33,596.667 1526,618L1233,911L1526,1204C1548,1226 1559,1252 1559,1282C1559,1310 1548,1336.67 1526,1362L1282,1605C1256.67,1627 1230.67,1638 1204,1638C1176,1638 1149.33,1627 1124,1605L831,1310L537,1605C511.667,1627 485,1638 457,1638C430.333,1638 404.333,1627 379,1605L135,1362C113,1336.67 102,1310 102,1282ZM213,1282L457,1527L829,1155L831,1157L831,1155L1204,1527L1448,1282L1077,911L1448,540L1204,295L831,667L831,665L829,667L457,295L213,540L584,911L213,1282Z" style="fill-rule:nonzero;"/>
    </g>
</svg>
